HIERARCHY
ROOT hip
{
  OFFSET 0 0 0
  CHANNELS 6 Xposition Yposition Zposition Zrotation Yrotation Xrotation
  JOINT abdomen
  {
    OFFSET 0 20.6881 -0.73152
    CHANNELS 3 Zrotation Xrotation Yrotation
    JOINT chest
    {
      OFFSET 0 11.7043 -0.48768
      CHANNELS 3 Zrotation Xrotation Yrotation
      JOINT neck
      {
        OFFSET 0 22.1894 -2.19456
        CHANNELS 3 Zrotation Xrotation Yrotation
        JOINT head
        {
          OFFSET -0.24384 7.07133 1.2192
          CHANNELS 3 Zrotation Xrotation Yrotation
          JOINT leftEye
          {
            OFFSET 4.14528 8.04674 8.04672
            CHANNELS 3 Zrotation Xrotation Yrotation
            End Site
            {
              OFFSET 1 0 0
            }
          }
          JOINT rightEye
          {
            OFFSET -3.6576 8.04674 8.04672
            CHANNELS 3 Zrotation Xrotation Yrotation
            End Site
            {
              OFFSET 1 0 0
            }
          }
        }
      }
      JOINT rCollar
      {
        OFFSET -2.68224 19.2634 -4.8768
        CHANNELS 3 Zrotation Xrotation Yrotation
        JOINT rShldr
        {
          OFFSET -8.77824 -1.95073 1.46304
          CHANNELS 3 Zrotation Xrotation Yrotation
          JOINT rForeArm
          {
            OFFSET -28.1742 -1.7115 0.48768
            CHANNELS 3 Zrotation Xrotation Yrotation
            JOINT rHand
            {
              OFFSET -22.5879 0.773209 7.07136
              CHANNELS 3 Zrotation Xrotation Yrotation
              JOINT rThumb1
              {
                OFFSET -1.2192 -0.487915 3.41376
                CHANNELS 3 Zrotation Xrotation Yrotation
                JOINT rThumb2
                {
                  OFFSET -3.37035 -0.52449 3.41376
                  CHANNELS 3 Zrotation Xrotation Yrotation
                  End Site
                  {
                    OFFSET -1.78271 -1.18214 1.43049
                  }
                }
              }
              JOINT rIndex1
              {
                OFFSET -7.75947 0.938293 5.60832
                CHANNELS 3 Zrotation Xrotation Yrotation
                JOINT rIndex2
                {
                  OFFSET -2.54057 -0.884171 1.56538
                  CHANNELS 3 Zrotation Xrotation Yrotation
                  End Site
                  {
                    OFFSET -1.62519 -0.234802 1.16502
                  }
                }
              }
              JOINT rMid1
              {
                OFFSET -8.24714 1.18213 3.41376
                CHANNELS 3 Zrotation Xrotation Yrotation
                JOINT rMid2
                {
                  OFFSET -3.10165 -0.590103 1.0647
                  CHANNELS 3 Zrotation Xrotation Yrotation
                  End Site
                  {
                    OFFSET -2.48547 -0.328903 0.83742
                  }
                }
              }
              JOINT rRing1
              {
                OFFSET -8.82822 0.546677 1.51678
                CHANNELS 3 Zrotation Xrotation Yrotation
                JOINT rRing2
                {
                  OFFSET -2.60934 -0.819778 -0.0198488
                  CHANNELS 3 Zrotation Xrotation Yrotation
                  End Site
                  {
                    OFFSET -2.33842 -0.294052 0.168128
                  }
                }
              }
              JOINT rPinky1
              {
                OFFSET -8.27202 -0.0477905 -0.4584
                CHANNELS 3 Zrotation Xrotation Yrotation
                JOINT rPinky2
                {
                  OFFSET -1.82734 -0.647385 -0.700984
                  CHANNELS 3 Zrotation Xrotation Yrotation
                  End Site
                  {
                    OFFSET -1.69225 -0.51767 -0.607171
                  }
                }
              }
            }
          }
        }
      }
      JOINT lCollar
      {
        OFFSET 2.68224 19.2634 -4.8768
        CHANNELS 3 Zrotation Xrotation Yrotation
        JOINT lShldr
        {
          OFFSET 8.77824 -1.95073 1.46304
          CHANNELS 3 Zrotation Xrotation Yrotation
          JOINT lForeArm
          {
            OFFSET 28.1742 -1.7115 0.48768
            CHANNELS 3 Zrotation Xrotation Yrotation
            JOINT lHand
            {
              OFFSET 22.5879 0.773209 7.07136
              CHANNELS 3 Zrotation Xrotation Yrotation
              JOINT lThumb1
              {
                OFFSET 1.2192 -0.487915 3.41376
                CHANNELS 3 Zrotation Xrotation Yrotation
                JOINT lThumb2
                {
                  OFFSET 3.37035 -0.52449 3.41376
                  CHANNELS 3 Zrotation Xrotation Yrotation
                  End Site
                  {
                    OFFSET 1.78271 -1.18214 1.43049
                  }
                }
              }
              JOINT lIndex1
              {
                OFFSET 7.75947 0.938293 5.60832
                CHANNELS 3 Zrotation Xrotation Yrotation
                JOINT lIndex2
                {
                  OFFSET 2.54057 -0.884171 1.56538
                  CHANNELS 3 Zrotation Xrotation Yrotation
                  End Site
                  {
                    OFFSET 1.62519 -0.234802 1.16502
                  }
                }
              }
              JOINT lMid1
              {
                OFFSET 8.24714 1.18213 3.41376
                CHANNELS 3 Zrotation Xrotation Yrotation
                JOINT lMid2
                {
                  OFFSET 3.10165 -0.590103 1.0647
                  CHANNELS 3 Zrotation Xrotation Yrotation
                  End Site
                  {
                    OFFSET 2.48547 -0.328903 0.83742
                  }
                }
              }
              JOINT lRing1
              {
                OFFSET 8.82822 0.546677 1.51678
                CHANNELS 3 Zrotation Xrotation Yrotation
                JOINT lRing2
                {
                  OFFSET 2.60934 -0.819778 -0.0198488
                  CHANNELS 3 Zrotation Xrotation Yrotation
                  End Site
                  {
                    OFFSET 2.33842 -0.294052 0.168128
                  }
                }
              }
              JOINT lPinky1
              {
                OFFSET 8.27202 -0.0477905 -0.4584
                CHANNELS 3 Zrotation Xrotation Yrotation
                JOINT lPinky2
                {
                  OFFSET 1.82734 -0.647385 -0.700984
                  CHANNELS 3 Zrotation Xrotation Yrotation
                  End Site
                  {
                    OFFSET 1.69225 -0.51767 -0.607171
                  }
                }
              }
            }
          }
        }
      }
    }
  }
  JOINT rButtock
  {
    OFFSET -8.77824 4.35084 1.2192
    CHANNELS 3 Zrotation Xrotation Yrotation
    JOINT rThigh
    {
      OFFSET 0 -1.70687 -2.19456
      CHANNELS 3 Zrotation Xrotation Yrotation
      JOINT rShin
      {
        OFFSET 0 -36.8199 0.73152
        CHANNELS 3 Zrotation Xrotation Yrotation
        JOINT rFoot
        {
          OFFSET 0.73152 -45.1104 -5.12064
          CHANNELS 3 Zrotation Xrotation Yrotation
          End Site
          {
            OFFSET -1.1221 -3.69964 12.103
          }
        }
      }
    }
  }
  JOINT lButtock
  {
    OFFSET 8.77824 4.35084 1.2192
    CHANNELS 3 Zrotation Xrotation Yrotation
    JOINT lThigh
    {
      OFFSET 0 -1.70687 -2.19456
      CHANNELS 3 Zrotation Xrotation Yrotation
      JOINT lShin
      {
        OFFSET 0 -36.8199 0.73152
        CHANNELS 3 Zrotation Xrotation Yrotation
        JOINT lFoot
        {
          OFFSET -0.73152 -45.1104 -5.12064
          CHANNELS 3 Zrotation Xrotation Yrotation
          End Site
          {
            OFFSET 1.1221 -3.69964 12.103
          }
        }
      }
    }
  }
}
MOTION
Frames:	4
Frame Time:	0.03333
-3.403045735321939 -8.132509231567383 -21.90557524957694 -168.87908935546875 81.12149655818939 -153.05931329727173 4.602264314889908 18.505911827087402 6.2581562250852585 -2.5909458473324776 -13.394018411636353 1.9431637041270733 3.2321426644921303 11.852538138628006 13.49102720618248 0.24094484746456146 -28.538733422756195 21.649484932422638 1.3203477300703526 -0.9350591339170933 0.33874036744236946 0.7245276030153036 0.9590060636401176 -0.5573879275470972 -0.28844593092799187 0.8513335604220629 -1.624605618417263 44.56985950469971 48.81767392158508 1.3831816613674164 -26.181141436100006 -42.05613613128662 82.65228152275085 -1.035060603171587 8.235903158783913 0.15900327824056149 -0.14599997084587812 -0.18868242390453815 1.9134248793125153 0.7214838825166225 -0.6047078780829906 -0.3449907526373863 -0.054941531270742416 -0.08174811489880085 0.8550507668405771 7.599324434995651 5.556267723441124 0.18237235955893993 0.8472158666700125 -0.41464478708803654 0.6997802015393972 2.967889755964279 -0.8856458030641079 -0.2709937607869506 2.5702982023358345 -0.32004939392209053 0.1570232631638646 10.060498639941216 1.0672680661082268 0.2504708804190159 2.1284793689846992 0.45280021615326405 -0.8759328536689281 0.8264409005641937 -0.9752939455211163 -0.48904163762927055 -1.9645588472485542 0.47788431867957115 -0.7148583233356476 -44.722820520401 15.32954066991806 -34.945270121097565 25.13297438621521 -41.606613993644714 -85.24948060512543 0.09539519436657429 -38.42114210128784 4.8267025128006935 0.380866639316082 0.4637473588809371 1.3859771937131882 -0.6945226946845651 -0.7544478960335255 -3.2761355862021446 -0.319045577198267 0.7950924150645733 0.05273465998470783 -8.041438981890678 4.373935908079147 0.049694920890033245 0.5073326686397195 1.3806933257728815 1.0634433198720217 -3.6518842354416847 0.5418924288824201 -0.6310902535915375 -1.3638945668935776 -0.21227381424978375 0.5745588848367333 -10.122904926538467 0.882504265755415 -1.3764099217951298 -0.4547040816396475 1.2966815941035748 0.29459007550030947 -0.762152373790741 -0.7191113010048866 -1.2966116890311241 -0.8421887364238501 0.05144621478393674 -0.5452366825193167 -43.655312061309814 -46.70644283294678 -29.168540239334106 -12.682962119579315 79.83436346054077 21.613623797893524 -0.9005121141672134 -1.8899495154619217 -12.27428063750267 -2.638630997389555 0.35296982154250145 0.26609525084495544 40.9819757938385 -64.00899231433868 35.95549464225769 -12.108703851699829 81.41254842281342 14.404204040765762 2.582649774849415 -20.338667929172516 6.464161276817322
-3.4556404827162623 -7.135741233825684 -23.8894806841854 -168.42336058616638 82.307950258255 -159.62981343269348 4.251305311918259 19.467350989580154 4.953266568481922 -2.743312753736973 -13.14374953508377 2.013703789561987 3.030887134373188 11.435214579105377 13.597359359264374 0.10952062904834747 -27.89251148700714 21.52661830186844 1.6561073251068592 -1.258664969354868 0.2333996258676052 0.7711626682430506 0.8131021074950695 -0.5567026231437922 -0.30021747574210167 0.7674571964889765 -1.4614646136760712 46.222636699676514 52.49688148498535 -1.9444003701210022 -26.20803326368332 -42.50194609165192 83.4291136264801 -2.384305614978075 5.30975729227066 -0.24475366808474064 0.08046203758567572 -0.4483741521835327 1.7532389983534813 0.2590585593134165 -0.6577946618199348 -0.21852007135748863 0.024381782859563828 -0.15072862152010202 1.0207882337272167 7.4515219777822495 5.779194161295891 0.05665026605129242 1.050556730479002 -0.26258924743160605 0.9544169716536999 3.054404743015766 -0.8176283352077007 -0.5572322336956859 2.821325808763504 -0.43772393837571144 -0.07791343610733747 10.011893659830093 0.9033172018826008 0.3061174973845482 1.694863736629486 0.7470439095050097 -0.6606052396818995 0.8254468068480492 -0.7414836902171373 -0.06056075915694237 -1.9453629478812218 0.37623999640345573 -0.5574031826108694 -45.945210456848145 16.813327968120575 -34.57622230052948 24.574613571166992 -41.31309986114502 -86.55183255672455 -0.16369479708373547 -35.417819023132324 3.6027515307068825 0.1822856068611145 0.18381777685135603 1.0463708080351353 -0.5798678146675229 -0.5599919334053993 -2.775286026299 -0.2023550681769848 0.5593162262812257 0.019054245203733444 -8.239274695515633 4.361374117434025 0.07797277998179197 0.5926639633253217 1.4112694188952446 0.8234184700995684 -3.5502204671502113 0.6605483265593648 -0.319717638194561 -1.8503399938344955 -0.2290230360813439 0.3602486243471503 -10.222991555929184 0.7355089858174324 -1.3229021988809109 -0.38561741821467876 1.2019287049770355 0.24720533285290003 -0.8571634255349636 -0.6449698470532894 -1.4425255358219147 -0.9382141660898924 0.05810354137793183 -0.7392593007534742 -42.816354632377625 -51.00459158420563 -29.560767710208893 -20.195928812026978 82.15142726898193 26.863318383693695 -1.357950121164322 -3.0927512794733047 -10.638552233576775 -2.975727841258049 0.22006317973136902 0.5010324530303478 33.91279399394989 -62.518354654312134 34.227814078330994 -10.624232590198517 78.20726573467255 11.666922569274902 2.9141493514180183 -18.959233313798904 7.595034241676331
-3.3959586983546615 -6.014226913452148 -26.076581809902564 -172.67643213272095 85.80968141555786 -174.6878957748413 0.7284529320895672 20.923701971769333 5.0404417142271996 -3.3670490607619286 -12.901981920003891 1.974602546542883 1.9272104278206825 9.80346992611885 13.518197983503342 -0.6103125214576721 -28.326055705547333 21.650662422180176 1.6471782512962818 -2.1029536239802837 -0.0339244119822979 0.8547846414148808 0.6324796378612518 -0.9049998689442873 -0.20558386109769344 0.8633552212268114 -1.3239625934511423 45.732715129852295 52.9681670665741 -0.9258127212524414 -28.425898253917694 -40.68014144897461 80.67870140075684 -0.6048101373016834 11.80033564567566 4.595183618366718 0.06983110215514898 -0.7916002627462149 1.8051695823669434 0.4323476180434227 -0.5043319053947926 -0.30953630805015564 0.4857086995616555 -0.2060619229450822 1.1045655235648155 7.24067822098732 6.000137105584145 -0.35142185166478157 1.1741324700415134 0.02165353624150157 0.44264218769967556 3.0750486999750137 -0.6202531233429909 -0.5593477003276348 2.9568809643387794 -0.9173384495079517 -0.26181825902312994 9.706304222345352 -0.09399864356964827 0.6392605975270271 0.9989699721336365 0.5563661735504866 -0.4583942564204335 0.9539034962654114 -0.6549309007823467 2.014386747032404 -1.8968075886368752 0.7256154902279377 -0.6934967078268528 -50.594685673713684 18.571317493915558 -31.397179663181305 25.31253755092621 -38.80712002515793 -87.0502245426178 4.149979837238789 -33.443981409072876 3.254491500556469 0.46011434867978096 0.2669447148218751 0.8187002129852772 -0.27698548045009375 0.3516588918864727 -2.2424712404608727 -0.2576407603919506 0.2605682658031583 -0.23304037749767303 -8.290310427546501 4.424880109727383 0.2330981707200408 0.4279504297301173 1.417912244796753 0.5278109572827816 -3.4576547518372536 0.3127704234793782 0.10466566309332848 -2.3752449452877045 0.14904061099514365 0.16131764743477106 -10.522669404745102 0.5950348265469074 -1.0369193740189075 -0.034465380012989044 1.3328655995428562 -0.14453045558184385 -1.3865230232477188 -0.5150838335976005 -1.6910541616380215 -0.682912627235055 0.34923419589176774 -0.664629265666008 -43.495962023735046 -53.542749881744385 -30.155893564224243 -41.17052435874939 81.44455790519714 43.805848360061646 -2.0643433928489685 -2.4206024408340454 -8.126843869686127 -3.501218520104885 -0.125401820987463 0.49502983689308167 23.925315141677856 -61.569040417671204 28.86993259191513 -5.458909571170807 72.865469455719 3.3555299788713455 2.282928340137005 -18.391279578208923 10.043575912714005
-3.1990667646750808 -5.0638227462768555 -28.475242469692603 -187.99504280090332 83.17346155643463 -180.98072290420532 -1.7014527507126331 23.295792639255524 6.169736534357071 -4.447861947119236 -12.790524065494537 2.5614479184150696 2.0347928255796432 10.129447504878044 13.078563809394836 -0.6203721463680267 -29.591556787490845 23.50649356842041 1.0856881365180016 -2.1791152842342854 0.09575905278325081 0.6684915628284216 0.6399452313780785 -0.9405081253498793 -0.023194150999188423 0.9330435376614332 -1.459176018834114 44.27937626838684 57.025437355041504 3.1090007722377777 -29.610702395439148 -41.29796415567398 81.44500851631165 0.23522285744547844 13.939988762140274 3.911730945110321 0.2382483473047614 -0.5650356598198414 1.4808549731969833 0.9377451986074448 -0.3742461930960417 -0.3127787634730339 0.3057233802974224 -0.17898854333907366 0.8488123677670956 7.165215611457825 6.0099948942661285 -0.5159322917461395 0.9035966545343399 0.33722070744261146 0.3610834199935198 2.81964473426342 -0.3800215758383274 -0.3438283922150731 3.609176427125931 -1.220292616635561 -0.2298612892627716 9.617765843868256 -0.1983286952599883 0.6722189113497734 0.6202754192054272 0.5097005981951952 -0.20082151517271996 1.234927587211132 -0.6264753034338355 2.177871745079756 -2.1006719022989273 0.4652827978134155 -0.42602824978530407 -48.98232400417328 19.18626755475998 -28.968077301979065 25.326034426689148 -41.53924763202667 -92.64083862304688 3.891356885433197 -31.617810130119324 3.2309745624661446 0.4904767870903015 0.2903597289696336 0.5559086054563522 -0.0861658388748765 1.1211018450558186 -1.8539539352059364 -1.4926538430154324 0.3903459431603551 -0.5243758857250214 -8.000882640480995 4.405074343085289 0.17836601939052343 0.7692563720047474 1.3810280989855528 0.13629100285470486 -3.419269323348999 0.2808432513847947 0.23603221401572227 -1.450587585568428 0.2125525544397533 0.036683608777821064 -10.846570953726768 0.6502530444413424 -0.7533463463187218 0.09433727245777845 1.1581743322312832 -0.39192383643239737 -1.4146191626787186 -0.4667717171832919 -1.7680075764656067 -0.7439746242016554 0.07637717993929982 -0.43242238461971283 -47.989139556884766 -56.850353479385376 -42.58100688457489 -84.06577348709106 86.455557346344 88.64469051361084 -2.774054892361164 -5.393380522727966 -7.019619941711426 -3.0769503861665726 -0.43722571805119514 0.3850865922868252 20.521009862422943 -62.81381070613861 25.39093852043152 -2.1628206968307495 72.14498519897461 -0.6501747574657202 1.306377612054348 -16.208969950675964 7.6589928567409515
